<?xml version="1.0" encoding="UTF-8"?>
<svg xmlns="http://www.w3.org/2000/svg" xmlns:xlink="http://www.w3.org/1999/xlink" width="32px" height="32px" viewBox="0 0 32 32" version="1.1">
<g id="surface1">
<path style=" stroke:none;fill-rule:nonzero;fill:rgb(25.098039%,25.098039%,25.098039%);fill-opacity:1;" d="M 5.699219 0 L 26.300781 0 C 29.449219 0 32 2.417969 32 5.402344 L 32 26.597656 C 32 29.582031 29.449219 32 26.300781 32 L 5.699219 32 C 2.550781 32 0 29.582031 0 26.597656 L 0 5.402344 C 0 2.417969 2.550781 0 5.699219 0 Z M 5.699219 0 "/>
<path style=" stroke:none;fill-rule:nonzero;fill:rgb(92.941176%,92.941176%,92.941176%);fill-opacity:0.8;" d="M 9.425781 7.167969 C 9.425781 8.832031 8 10.183594 6.246094 10.183594 C 4.492188 10.183594 3.070312 8.832031 3.070312 7.167969 C 3.070312 5.503906 4.492188 4.15625 6.246094 4.15625 C 8 4.15625 9.425781 5.503906 9.425781 7.167969 Z M 9.425781 7.167969 "/>
<path style=" stroke:none;fill-rule:nonzero;fill:rgb(85.098039%,85.098039%,85.098039%);fill-opacity:1;" d="M 12.601562 5.195312 L 28.164062 5.195312 C 28.710938 5.195312 29.152344 5.613281 29.152344 6.128906 C 29.152344 6.644531 28.710938 7.066406 28.164062 7.066406 L 12.601562 7.066406 C 12.058594 7.066406 11.617188 6.644531 11.617188 6.128906 C 11.617188 5.613281 12.058594 5.195312 12.601562 5.195312 Z M 12.601562 5.195312 "/>
<path style=" stroke:none;fill-rule:nonzero;fill:rgb(85.098039%,85.098039%,85.098039%);fill-opacity:1;" d="M 12.601562 8.3125 L 28.164062 8.3125 C 28.710938 8.3125 29.152344 8.730469 29.152344 9.246094 C 29.152344 9.761719 28.710938 10.183594 28.164062 10.183594 L 12.601562 10.183594 C 12.058594 10.183594 11.617188 9.761719 11.617188 9.246094 C 11.617188 8.730469 12.058594 8.3125 12.601562 8.3125 Z M 12.601562 8.3125 "/>
<path style=" stroke:none;fill-rule:nonzero;fill:rgb(92.941176%,92.941176%,92.941176%);fill-opacity:0.321569;" d="M 3.324219 24.3125 L 3.324219 13.734375 L 7.09375 13.734375 C 7.964844 13.734375 8.679688 13.875 9.242188 14.15625 C 9.800781 14.4375 10.214844 14.820312 10.484375 15.308594 C 10.75 15.796875 10.886719 16.355469 10.886719 16.976562 C 10.886719 17.601562 10.75 18.152344 10.484375 18.636719 C 10.214844 19.117188 9.800781 19.496094 9.246094 19.769531 C 8.691406 20.042969 7.980469 20.179688 7.117188 20.179688 L 4.066406 20.179688 L 4.066406 19.023438 L 7.070312 19.023438 C 7.667969 19.023438 8.148438 18.941406 8.511719 18.773438 C 8.878906 18.609375 9.144531 18.375 9.304688 18.070312 C 9.472656 17.765625 9.558594 17.402344 9.558594 16.976562 C 9.558594 16.554688 9.472656 16.183594 9.304688 15.867188 C 9.140625 15.550781 8.871094 15.304688 8.503906 15.132812 C 8.136719 14.957031 7.652344 14.871094 7.050781 14.871094 L 4.675781 14.871094 L 4.675781 24.3125 Z M 8.574219 19.558594 L 11.320312 24.3125 L 9.753906 24.3125 L 7.050781 19.558594 Z M 13.136719 24.3125 L 13.136719 13.734375 L 19.871094 13.734375 L 19.871094 14.871094 L 14.488281 14.871094 L 14.488281 18.445312 L 19.523438 18.445312 L 19.523438 19.582031 L 14.488281 19.582031 L 14.488281 23.175781 L 19.957031 23.175781 L 19.957031 24.3125 Z M 22.308594 24.3125 L 22.308594 13.734375 L 28.996094 13.734375 L 28.996094 14.871094 L 23.660156 14.871094 L 23.660156 18.445312 L 28.496094 18.445312 L 28.496094 19.582031 L 23.660156 19.582031 L 23.660156 24.3125 Z M 22.308594 24.3125 "/>
</g>
</svg>
