<?xml version="1.0" encoding="UTF-8"?>
<svg xmlns="http://www.w3.org/2000/svg" xmlns:xlink="http://www.w3.org/1999/xlink" width="512px" height="512px" viewBox="0 0 512 512" version="1.1">
<g id="surface1">
<path style=" stroke:none;fill-rule:nonzero;fill:rgb(25.098039%,25.098039%,25.098039%);fill-opacity:1;" d="M 91.179688 0 L 420.820312 0 C 471.179688 0 512 38.703125 512 86.441406 L 512 425.558594 C 512 473.296875 471.179688 512 420.820312 512 L 91.179688 512 C 40.820312 512 0 473.296875 0 425.558594 L 0 86.441406 C 0 38.703125 40.820312 0 91.179688 0 Z M 91.179688 0 "/>
<path style=" stroke:none;fill-rule:nonzero;fill:rgb(92.941176%,92.941176%,92.941176%);fill-opacity:0.8;" d="M 150.792969 114.703125 C 150.792969 141.324219 128.027344 162.910156 99.945312 162.910156 C 71.863281 162.910156 49.097656 141.324219 49.097656 114.703125 C 49.097656 88.078125 71.863281 66.492188 99.945312 66.492188 C 128.027344 66.492188 150.792969 88.078125 150.792969 114.703125 Z M 150.792969 114.703125 "/>
<path style=" stroke:none;fill-rule:nonzero;fill:rgb(85.098039%,85.098039%,85.098039%);fill-opacity:1;" d="M 201.644531 83.117188 L 450.628906 83.117188 C 459.34375 83.117188 466.410156 89.816406 466.410156 98.078125 C 466.410156 106.339844 459.34375 113.039062 450.628906 113.039062 L 201.644531 113.039062 C 192.929688 113.039062 185.863281 106.339844 185.863281 98.078125 C 185.863281 89.816406 192.929688 83.117188 201.644531 83.117188 Z M 201.644531 83.117188 "/>
<path style=" stroke:none;fill-rule:nonzero;fill:rgb(85.098039%,85.098039%,85.098039%);fill-opacity:1;" d="M 201.644531 132.988281 L 450.628906 132.988281 C 459.34375 132.988281 466.410156 139.683594 466.410156 147.949219 C 466.410156 156.210938 459.34375 162.910156 450.628906 162.910156 L 201.644531 162.910156 C 192.929688 162.910156 185.863281 156.210938 185.863281 147.949219 C 185.863281 139.683594 192.929688 132.988281 201.644531 132.988281 Z M 201.644531 132.988281 "/>
<path style=" stroke:none;fill-rule:nonzero;fill:rgb(92.941176%,92.941176%,92.941176%);fill-opacity:0.321569;" d="M 53.179688 388.988281 L 53.179688 219.730469 L 113.503906 219.730469 C 127.453125 219.730469 138.902344 221.988281 147.851562 226.507812 C 156.800781 230.96875 163.425781 237.113281 167.726562 244.9375 C 172.027344 252.761719 174.175781 261.660156 174.175781 271.632812 C 174.175781 281.605469 172.027344 290.445312 167.726562 298.160156 C 163.425781 305.875 156.828125 311.933594 147.9375 316.34375 C 139.046875 320.695312 127.683594 322.871094 113.851562 322.871094 L 65.035156 322.871094 L 65.035156 304.359375 L 113.15625 304.359375 C 122.6875 304.359375 130.359375 303.035156 136.167969 300.390625 C 142.039062 297.746094 146.28125 294 148.898438 289.152344 C 151.570312 284.25 152.90625 278.410156 152.90625 271.632812 C 152.90625 264.855469 151.570312 258.933594 148.898438 253.863281 C 146.222656 248.792969 141.953125 244.882812 136.082031 242.128906 C 130.210938 239.316406 122.453125 237.914062 112.808594 237.914062 L 74.800781 237.914062 L 74.800781 388.988281 Z M 137.214844 312.953125 L 181.152344 388.988281 L 156.046875 388.988281 L 112.808594 312.953125 Z M 210.203125 388.988281 L 210.203125 219.730469 L 317.945312 219.730469 L 317.945312 237.914062 L 231.820312 237.914062 L 231.820312 295.101562 L 312.367188 295.101562 L 312.367188 313.285156 L 231.820312 313.285156 L 231.820312 370.804688 L 319.339844 370.804688 L 319.339844 388.988281 Z M 356.914062 388.988281 L 356.914062 219.730469 L 463.964844 219.730469 L 463.964844 237.914062 L 378.53125 237.914062 L 378.53125 295.101562 L 455.941406 295.101562 L 455.941406 313.285156 L 378.53125 313.285156 L 378.53125 388.988281 Z M 356.914062 388.988281 "/>
</g>
</svg>
