<?xml version="1.0" encoding="UTF-8"?>
<svg xmlns="http://www.w3.org/2000/svg" xmlns:xlink="http://www.w3.org/1999/xlink" width="192px" height="192px" viewBox="0 0 192 192" version="1.1">
<g id="surface1">
<path style=" stroke:none;fill-rule:nonzero;fill:rgb(25.098039%,25.098039%,25.098039%);fill-opacity:1;" d="M 34.191406 0 L 157.808594 0 C 176.691406 0 192 14.511719 192 32.414062 L 192 159.585938 C 192 177.488281 176.691406 192 157.808594 192 L 34.191406 192 C 15.308594 192 0 177.488281 0 159.585938 L 0 32.414062 C 0 14.511719 15.308594 0 34.191406 0 Z M 34.191406 0 "/>
<path style=" stroke:none;fill-rule:nonzero;fill:rgb(92.941176%,92.941176%,92.941176%);fill-opacity:0.8;" d="M 56.546875 43.011719 C 56.546875 52.996094 48.011719 61.089844 37.480469 61.089844 C 26.949219 61.089844 18.410156 52.996094 18.410156 43.011719 C 18.410156 33.027344 26.949219 24.933594 37.480469 24.933594 C 48.011719 24.933594 56.546875 33.027344 56.546875 43.011719 Z M 56.546875 43.011719 "/>
<path style=" stroke:none;fill-rule:nonzero;fill:rgb(85.098039%,85.098039%,85.098039%);fill-opacity:1;" d="M 75.617188 31.167969 L 168.984375 31.167969 C 172.253906 31.167969 174.902344 33.679688 174.902344 36.777344 C 174.902344 39.878906 172.253906 42.390625 168.984375 42.390625 L 75.617188 42.390625 C 72.347656 42.390625 69.699219 39.878906 69.699219 36.777344 C 69.699219 33.679688 72.347656 31.167969 75.617188 31.167969 Z M 75.617188 31.167969 "/>
<path style=" stroke:none;fill-rule:nonzero;fill:rgb(85.098039%,85.098039%,85.098039%);fill-opacity:1;" d="M 75.617188 49.871094 L 168.984375 49.871094 C 172.253906 49.871094 174.902344 52.382812 174.902344 55.480469 C 174.902344 58.578125 172.253906 61.089844 168.984375 61.089844 L 75.617188 61.089844 C 72.347656 61.089844 69.699219 58.578125 69.699219 55.480469 C 69.699219 52.382812 72.347656 49.871094 75.617188 49.871094 Z M 75.617188 49.871094 "/>
<path style=" stroke:none;fill-rule:nonzero;fill:rgb(92.941176%,92.941176%,92.941176%);fill-opacity:0.321569;" d="M 19.941406 145.871094 L 19.941406 82.398438 L 42.5625 82.398438 C 47.792969 82.398438 52.085938 83.246094 55.445312 84.941406 C 58.800781 86.613281 61.285156 88.917969 62.898438 91.851562 C 64.511719 94.785156 65.316406 98.121094 65.316406 101.863281 C 65.316406 105.601562 64.511719 108.917969 62.898438 111.808594 C 61.285156 114.703125 58.8125 116.976562 55.476562 118.628906 C 52.140625 120.261719 47.882812 121.078125 42.695312 121.078125 L 24.386719 121.078125 L 24.386719 114.132812 L 42.433594 114.132812 C 46.007812 114.132812 48.882812 113.640625 51.0625 112.648438 C 53.265625 111.65625 54.855469 110.25 55.835938 108.433594 C 56.839844 106.59375 57.339844 104.402344 57.339844 101.863281 C 57.339844 99.320312 56.839844 97.097656 55.835938 95.199219 C 54.832031 93.296875 53.230469 91.832031 51.03125 90.796875 C 48.828125 89.742188 45.921875 89.21875 42.300781 89.21875 L 28.050781 89.21875 L 28.050781 145.871094 Z M 51.457031 117.359375 L 67.929688 145.871094 L 58.515625 145.871094 L 42.300781 117.359375 Z M 78.824219 145.871094 L 78.824219 82.398438 L 119.230469 82.398438 L 119.230469 89.21875 L 86.933594 89.21875 L 86.933594 110.664062 L 117.136719 110.664062 L 117.136719 117.480469 L 86.933594 117.480469 L 86.933594 139.050781 L 119.753906 139.050781 L 119.753906 145.871094 Z M 133.84375 145.871094 L 133.84375 82.398438 L 173.984375 82.398438 L 173.984375 89.21875 L 141.949219 89.21875 L 141.949219 110.664062 L 170.980469 110.664062 L 170.980469 117.480469 L 141.949219 117.480469 L 141.949219 145.871094 Z M 133.84375 145.871094 "/>
</g>
</svg>
